<svg width="353" height="49" viewBox="0 0 353 49" fill="none" xmlns="http://www.w3.org/2000/svg">
<g clip-path="url(#clip0_2_6)">
<path d="M32.7827 23.3848C32.6729 22.1771 32.1844 21.2384 31.3171 20.5687C30.4607 19.888 29.2366 19.5477 27.6447 19.5477C26.5907 19.5477 25.7124 19.6849 25.0098 19.9594C24.3071 20.2339 23.7802 20.6126 23.4288 21.0957C23.0775 21.5678 22.8964 22.1112 22.8854 22.726C22.8634 23.2311 22.9623 23.6757 23.1818 24.06C23.4124 24.4442 23.7417 24.7846 24.1699 25.081C24.6091 25.3664 25.136 25.6189 25.7508 25.8385C26.3657 26.0581 27.0573 26.2502 27.8258 26.4149L30.7242 27.0736C32.393 27.4359 33.8641 27.919 35.1377 28.5228C36.4222 29.1266 37.4981 29.8457 38.3654 30.6801C39.2437 31.5145 39.9079 32.4752 40.358 33.562C40.8082 34.6489 41.0387 35.8676 41.0497 37.218C41.0387 39.3478 40.5008 41.1758 39.4358 42.7018C38.3709 44.2279 36.8394 45.3971 34.8412 46.2095C32.8541 47.022 30.4552 47.4282 27.6447 47.4282C24.8231 47.4282 22.3639 47.0055 20.267 46.1601C18.17 45.3148 16.5397 44.0303 15.376 42.3066C14.2122 40.5829 13.6139 38.4037 13.5809 35.7688H21.3868C21.4527 36.8557 21.7436 37.7614 22.2596 38.486C22.7756 39.2106 23.4837 39.7595 24.384 40.1328C25.2952 40.5061 26.3492 40.6927 27.5459 40.6927C28.6437 40.6927 29.5769 40.5445 30.3454 40.2481C31.1249 39.9517 31.7233 39.54 32.1405 39.013C32.5577 38.486 32.7717 37.8822 32.7827 37.2015C32.7717 36.5647 32.5741 36.0213 32.1899 35.5712C31.8056 35.11 31.2128 34.7148 30.4113 34.3854C29.6208 34.0451 28.6108 33.7322 27.3812 33.4468L23.857 32.6234C20.9367 31.9537 18.6366 30.8723 16.9569 29.3792C15.2771 27.8751 14.4428 25.844 14.4537 23.286C14.4428 21.2 15.0027 19.372 16.1335 17.8021C17.2643 16.2321 18.8288 15.008 20.8269 14.1297C22.825 13.2514 25.1031 12.8123 27.6611 12.8123C30.2741 12.8123 32.5412 13.2569 34.4625 14.1462C36.3947 15.0245 37.8933 16.2596 38.9582 17.8515C40.0232 19.4434 40.5666 21.2878 40.5886 23.3848H32.7827ZM75.7809 25.4927H67.5468C67.4371 24.6473 67.212 23.8843 66.8716 23.2036C66.5313 22.5229 66.0812 21.9411 65.5213 21.458C64.9613 20.9749 64.2971 20.6072 63.5286 20.3546C62.7711 20.0912 61.9312 19.9594 61.009 19.9594C59.3732 19.9594 57.9624 20.3601 56.7767 21.1616C55.602 21.963 54.6962 23.1213 54.0595 24.6363C53.4337 26.1514 53.1208 27.9849 53.1208 30.1367C53.1208 32.3763 53.4392 34.2537 54.0759 35.7688C54.7237 37.2729 55.6294 38.4092 56.7932 39.1777C57.9679 39.9352 59.3567 40.314 60.9596 40.314C61.8599 40.314 62.6778 40.1987 63.4133 39.9681C64.1599 39.7376 64.8131 39.4027 65.3731 38.9636C65.9439 38.5134 66.4105 37.97 66.7728 37.3332C67.1461 36.6855 67.4041 35.9554 67.5468 35.143L75.7809 35.1924C75.6382 36.6855 75.2045 38.1566 74.4799 39.6058C73.7663 41.055 72.7837 42.378 71.5321 43.5746C70.2805 44.7603 68.7545 45.7045 66.954 46.4071C65.1645 47.1098 63.1114 47.4611 60.7949 47.4611C57.7428 47.4611 55.0091 46.7914 52.5938 45.452C50.1895 44.1016 48.2902 42.1364 46.8959 39.5564C45.5016 36.9764 44.8044 33.8365 44.8044 30.1367C44.8044 26.4259 45.5125 23.2805 46.9288 20.7005C48.3451 18.1205 50.2608 16.1608 52.6762 14.8214C55.0915 13.482 57.7977 12.8123 60.7949 12.8123C62.837 12.8123 64.7253 13.0977 66.4599 13.6686C68.1946 14.2285 69.7206 15.0519 71.0381 16.1388C72.3555 17.2147 73.4259 18.5377 74.2493 20.1076C75.0727 21.6776 75.5833 23.4726 75.7809 25.4927ZM112.278 30.1367C112.278 33.8475 111.565 36.9929 110.137 39.5729C108.71 42.1529 106.778 44.1126 104.341 45.452C101.914 46.7914 99.1916 47.4611 96.1725 47.4611C93.1424 47.4611 90.4141 46.7859 87.9878 45.4355C85.5616 44.0851 83.6348 42.1254 82.2076 39.5564C80.7913 36.9764 80.0832 33.8365 80.0832 30.1367C80.0832 26.4259 80.7913 23.2805 82.2076 20.7005C83.6348 18.1205 85.5616 16.1608 87.9878 14.8214C90.4141 13.482 93.1424 12.8123 96.1725 12.8123C99.1916 12.8123 101.914 13.482 104.341 14.8214C106.778 16.1608 108.71 18.1205 110.137 20.7005C111.565 23.2805 112.278 26.4259 112.278 30.1367ZM103.945 30.1367C103.945 27.9409 103.633 26.0855 103.007 24.5705C102.392 23.0554 101.503 21.9081 100.339 21.1286C99.1861 20.3492 97.7973 19.9594 96.1725 19.9594C94.5586 19.9594 93.1698 20.3492 92.0061 21.1286C90.8423 21.9081 89.9475 23.0554 89.3218 24.5705C88.707 26.0855 88.3995 27.9409 88.3995 30.1367C88.3995 32.3324 88.707 34.1878 89.3218 35.7029C89.9475 37.218 90.8423 38.3652 92.0061 39.1447C93.1698 39.9242 94.5586 40.314 96.1725 40.314C97.7973 40.314 99.1861 39.9242 100.339 39.1447C101.503 38.3652 102.392 37.218 103.007 35.7029C103.633 34.1878 103.945 32.3324 103.945 30.1367ZM117.038 47V13.2734H130.97C133.495 13.2734 135.674 13.7674 137.507 14.7555C139.352 15.7326 140.774 17.0995 141.773 18.856C142.772 20.6017 143.271 22.6327 143.271 24.9492C143.271 27.2767 142.761 29.3133 141.74 31.0589C140.73 32.7935 139.286 34.1384 137.409 35.0936C135.531 36.0487 133.303 36.5263 130.723 36.5263H122.126V30.1037H129.207C130.437 30.1037 131.464 29.8897 132.287 29.4615C133.121 29.0333 133.753 28.435 134.181 27.6665C134.609 26.887 134.823 25.9812 134.823 24.9492C134.823 23.9063 134.609 23.006 134.181 22.2485C133.753 21.48 133.121 20.8871 132.287 20.4699C131.453 20.0527 130.426 19.8441 129.207 19.8441H125.189V47H117.038ZM147.289 47V13.2734H170.806V19.8935H155.441V26.8101H169.604V33.4468H155.441V40.3798H170.806V47H147.289Z" fill="#85DD71"/>
<rect y="13" width="7" height="1" fill="#444444"/>
<rect y="24" width="7" height="1" fill="#444444"/>
<rect y="35" width="7" height="1" fill="#444444"/>
<rect y="46" width="7" height="1" fill="#444444"/>
<rect x="171" width="7" height="1" transform="rotate(90 171 0)" fill="#444444"/>
<rect x="155.3" width="7" height="1" transform="rotate(90 155.3 0)" fill="#444444"/>
<rect x="139.6" width="7" height="1" transform="rotate(90 139.6 0)" fill="#444444"/>
<rect x="123.9" width="7" height="1" transform="rotate(90 123.9 0)" fill="#444444"/>
<rect x="108.2" width="7" height="1" transform="rotate(90 108.2 0)" fill="#444444"/>
<rect x="92.5" width="7" height="1" transform="rotate(90 92.5 0)" fill="#444444"/>
<rect x="76.8" width="7" height="1" transform="rotate(90 76.8 0)" fill="#444444"/>
<rect x="61.1" width="7" height="1" transform="rotate(90 61.1 0)" fill="#444444"/>
<rect x="45.4" width="7" height="1" transform="rotate(90 45.4 0)" fill="#444444"/>
<rect x="29.7" width="7" height="1" transform="rotate(90 29.7 0)" fill="#444444"/>
<rect x="14" width="7" height="1" transform="rotate(90 14 0)" fill="#444444"/>
<path d="M181.056 1.35294H189.482L204.132 37.1251H204.672L219.322 1.35294H227.748V47.3714H221.142V14.0709H220.715L207.143 47.304H201.661L188.089 14.0485H187.662V47.3714H181.056V1.35294ZM252.179 48.068C248.778 48.068 245.85 47.3415 243.393 45.8884C240.951 44.4204 239.064 42.3606 237.731 39.7092C236.412 37.0427 235.753 33.9194 235.753 30.3392C235.753 26.8039 236.412 23.6881 237.731 20.9917C239.064 18.2953 240.921 16.1906 243.303 14.6776C245.7 13.1647 248.501 12.4082 251.707 12.4082C253.654 12.4082 255.542 12.7302 257.369 13.3744C259.197 14.0185 260.837 15.0297 262.29 16.4078C263.743 17.786 264.889 19.5761 265.728 21.7781C266.567 23.9652 266.987 26.6242 266.987 29.755V32.1368H239.551V27.1035H260.403C260.403 25.3359 260.043 23.7705 259.324 22.4073C258.605 21.0291 257.594 19.9431 256.291 19.1492C255.003 18.3552 253.49 17.9582 251.752 17.9582C249.864 17.9582 248.217 18.4226 246.808 19.3514C245.415 20.2652 244.337 21.4636 243.573 22.9466C242.824 24.4146 242.449 26.01 242.449 27.7327V31.6649C242.449 33.9718 242.854 35.9342 243.663 37.5521C244.487 39.1699 245.633 40.4057 247.101 41.2596C248.569 42.0985 250.284 42.5179 252.246 42.5179C253.52 42.5179 254.68 42.3382 255.729 41.9786C256.778 41.6041 257.684 41.0499 258.448 40.3159C259.212 39.5818 259.796 38.6756 260.201 37.597L266.56 38.743C266.05 40.6155 265.136 42.2558 263.818 43.6639C262.515 45.057 260.875 46.1431 258.897 46.922C256.935 47.686 254.695 48.068 252.179 48.068ZM290.552 12.8576V18.2504H271.7V12.8576H290.552ZM276.755 4.58861H283.474V37.2375C283.474 38.5407 283.669 39.5219 284.058 40.181C284.448 40.8252 284.949 41.2671 285.564 41.5068C286.193 41.7315 286.874 41.8438 287.608 41.8438C288.148 41.8438 288.619 41.8064 289.024 41.7315C289.428 41.6566 289.743 41.5966 289.968 41.5517L291.181 47.1018C290.792 47.2516 290.237 47.4014 289.518 47.5512C288.799 47.716 287.9 47.8058 286.822 47.8208C285.054 47.8508 283.406 47.5362 281.878 46.8771C280.351 46.218 279.115 45.1993 278.171 43.8212C277.227 42.443 276.755 40.7128 276.755 38.6306V4.58861ZM312.488 48.068C309.088 48.068 306.159 47.3415 303.702 45.8884C301.261 44.4204 299.373 42.3606 298.04 39.7092C296.722 37.0427 296.063 33.9194 296.063 30.3392C296.063 26.8039 296.722 23.6881 298.04 20.9917C299.373 18.2953 301.231 16.1906 303.613 14.6776C306.009 13.1647 308.811 12.4082 312.016 12.4082C313.964 12.4082 315.851 12.7302 317.679 13.3744C319.506 14.0185 321.147 15.0297 322.6 16.4078C324.053 17.786 325.199 19.5761 326.038 21.7781C326.876 23.9652 327.296 26.6242 327.296 29.755V32.1368H299.86V27.1035H320.712C320.712 25.3359 320.353 23.7705 319.634 22.4073C318.915 21.0291 317.903 19.9431 316.6 19.1492C315.312 18.3552 313.799 17.9582 312.061 17.9582C310.174 17.9582 308.526 18.4226 307.118 19.3514C305.725 20.2652 304.646 21.4636 303.882 22.9466C303.133 24.4146 302.759 26.01 302.759 27.7327V31.6649C302.759 33.9718 303.163 35.9342 303.972 37.5521C304.796 39.1699 305.942 40.4057 307.41 41.2596C308.878 42.0985 310.593 42.5179 312.556 42.5179C313.829 42.5179 314.99 42.3382 316.038 41.9786C317.087 41.6041 317.993 41.0499 318.757 40.3159C319.521 39.5818 320.106 38.6756 320.51 37.597L326.869 38.743C326.36 40.6155 325.446 42.2558 324.128 43.6639C322.824 45.057 321.184 46.1431 319.207 46.922C317.244 47.686 315.005 48.068 312.488 48.068ZM334.75 47.3714V12.8576H341.244V18.3402H341.604C342.233 16.4827 343.341 15.0222 344.929 13.9586C346.532 12.88 348.345 12.3408 350.367 12.3408C350.786 12.3408 351.281 12.3557 351.85 12.3857C352.434 12.4157 352.891 12.4531 353.221 12.498V18.9245C352.951 18.8496 352.472 18.7672 351.783 18.6773C351.093 18.5724 350.404 18.52 349.715 18.52C348.127 18.52 346.712 18.857 345.468 19.5311C344.24 20.1903 343.266 21.1115 342.547 22.2949C341.828 23.4634 341.469 24.7966 341.469 26.2946V47.3714H334.75Z" fill="#444444"/>
</g>
<defs>
<clipPath id="clip0_2_6">
<rect width="353" height="49" fill="white"/>
</clipPath>
</defs>
</svg>
